<svg viewBox="0 0 612 200" xmlns="http://www.w3.org/2000/svg"><g fill="none"><path d="m458.03 159.35c-1.37 0-2.44.66-3.23 1.98-.51.67-.84 1.31-.99 1.93-.15.61-.23 1.46-.23 2.55 0 1.85.43 3.34 1.29 4.48.88 1.3 1.93 1.94 3.16 1.94s2.27-.67 3.13-2.01c.39-.62.71-1.3.94-2.03s.35-1.52.35-2.38c0-1.81-.43-3.3-1.28-4.48-.86-1.32-1.9-1.98-3.13-1.98z"/><path d="m502.27 172.2c4.47 0 8.08-2.13 10.83-6.39 2.71-4.26 4.06-9.8 4.06-16.63s-1.28-12-3.85-16.08c-2.62-4.03-6.05-6.04-10.31-6.04s-8 2.13-10.73 6.39c-2.83 4.31-4.24 9.78-4.24 16.43s1.32 11.84 3.96 16.01c2.59 4.21 6.02 6.32 10.28 6.32zm-5.1-36.7c1.18-2.5 2.74-3.75 4.69-3.75 2.27 0 4.16 1.86 5.68 5.57 1.52 3.72 2.27 8.87 2.27 15.47 0 2.57-.14 4.76-.42 6.58s-.73 3.35-1.35 4.6c-1.04 2.18-2.65 3.27-4.83 3.27s-4.07-1.76-5.55-5.28c-.79-2.04-1.34-4.26-1.67-6.67-.39-2.38-.59-5.21-.59-8.47 0-4.98.59-8.75 1.77-11.32z"/><path d="m182.35 87.27c4.78 15.3 9.17 28.8 13.39 41.18l-3.55 2.33c-18.1-16.48-39.04-35.86-64-59.26-25.74-8.31-53.85-18.39-85.59-30.71 77.35 59.69 130.23 99.48 165.72 124.71h26.31c.04-16.12 1.08-35.37 3.32-61.96l.4-4.69c-1.34-.21-2.7-.42-4.05-.64-16.66-2.72-33.69-6.31-51.93-10.96z"/><path d="m308.55 137.32-2.54 5.23-2.79-5.7c-4.66-9.5-9.99-20.37-16.15-33.04-15.66-.71-31.37-2.29-47.85-4.81l2.64 3.39c22 28.25 37.91 47.76 50.58 63.12h27.13c12.69-15.38 28.61-34.9 50.58-63.12l2.64-3.39c-16.53 2.53-32.3 4.11-48.01 4.82-6.21 12.88-11.56 23.9-16.23 33.5z"/><path d="m419.82 130.77-6.27 5.72 2.71-8.04c4.14-12.31 8.47-25.8 13.19-41.13-18.16 4.62-35.12 8.2-51.72 10.9-1.36.22-2.71.44-4.06.64l.4 4.69c2.24 26.57 3.27 45.83 3.32 61.96h26.31c35.49-25.23 88.37-65.03 165.72-124.71-31.83 12.36-60.04 22.47-85.85 30.8-24.87 23.37-45.73 42.73-63.74 59.17z"/></g><path d="m603.87 21.23c5.9 10.38 3.25 23.72-6.21 31.02-29.4 22.73-55.14 42.48-77.93 59.83 3.91 2.5 7.35 5.95 10.14 10.25 4.72 7.46 7.04 16.46 7.04 26.86s-2.39 19.77-7.13 27.21c-6.49 10.05-16.26 15.56-27.51 15.56-3.58 0-8.27-.61-13.12-2.9-3.73 1.86-7.85 2.85-12.11 2.85-1.86 0-3.73-.18-5.62-.57-.7.09-1.4.13-2.13.13h-2.5c-1.01 0-2-.09-2.96-.24-1.89.5-3.84.75-5.79.75-7.66 0-14.66-3.71-19.24-10.22-1.45-2-2.59-4.21-3.42-6.58-6.03 4.39-11.67 8.45-16.98 12.22-4.12 2.92-8.95 4.45-14 4.45h-29.18c-6.47 0-12.55-2.52-17.11-7.09-4.26-4.28-6.78-10.11-7.02-16.13-4.37 5.35-8.29 10.11-11.85 14.44-4.61 5.57-11.39 8.78-18.61 8.78h-29.2c-7.24 0-14.02-3.2-18.63-8.78-3.4-4.12-7.35-8.93-11.85-14.44-.24 6.08-2.7 11.78-7.04 16.13-4.54 4.56-10.62 7.09-17.09 7.09h-29.18c-5.05 0-9.87-1.54-13.98-4.45-37.63-26.72-94.59-69.65-179.32-135.15-9.46-7.31-12.11-20.65-6.21-31.02 4.28-7.53 12.33-12.2 20.98-12.2 3.05 0 6.03.57 8.89 1.69 37.32 14.77 69.62 26.5 98.73 35.9 3.38 1.08 6.52 2.94 9.11 5.35 5.59 5.24 10.97 10.29 16.17 15.14 4.5-4.5 10.73-7.07 17.18-7.07 2.02 0 4.02.26 5.97.77 18.91 4.91 36.36 8.64 53.36 11.43 17.71 2.87 34.38 4.63 50.97 5.33 6.34.26 12.2 2.98 16.43 7.44 4.26-4.45 10.09-7.17 16.46-7.44 16.63-.7 33.35-2.44 51.14-5.33 16.94-2.76 34.32-6.49 53.12-11.39 1.93-.5 3.95-.75 5.97-.75 6.45 0 12.68 2.57 17.18 7.07 5.18-4.85 10.55-9.87 16.1-15.1 2.59-2.44 5.75-4.3 9.13-5.4 29.14-9.37 61.52-21.15 99-35.96 2.85-1.12 5.84-1.69 8.89-1.69 8.67 0 16.7 4.67 20.98 12.2zm-94.48 138.14c.29-1.82.42-4.02.42-6.58 0-6.6-.77-11.76-2.28-15.47s-3.4-5.57-5.68-5.57c-1.93 0-3.49 1.25-4.67 3.75-1.18 2.57-1.78 6.34-1.78 11.32 0 3.27.2 6.08.59 8.47.33 2.41.88 4.63 1.67 6.67 1.49 3.51 3.34 5.27 5.55 5.27s3.8-1.08 4.83-3.25c.64-1.25 1.08-2.79 1.36-4.61z" fill="#231f20"/><path d="m509.81 152.79c0 2.57-.13 4.76-.42 6.58s-.72 3.36-1.36 4.61c-1.03 2.17-2.65 3.25-4.83 3.25s-4.06-1.76-5.55-5.27c-.79-2.04-1.34-4.26-1.67-6.67-.39-2.39-.59-5.2-.59-8.47 0-4.98.59-8.75 1.78-11.32 1.18-2.5 2.74-3.75 4.67-3.75 2.28 0 4.17 1.86 5.68 5.57s2.28 8.86 2.28 15.47z" fill="#fff"/><path d="m594.33 26.65c-2.34-4.11-6.72-6.66-11.45-6.66-1.66 0-3.28.31-4.84.93-37.7 14.91-70.3 26.76-99.67 36.21-1.85.6-3.57 1.61-4.98 2.94-9.82 9.23-19.02 17.83-27.65 25.87.51-3.92-.76-7.92-3.55-10.83-3.24-3.38-8.28-4.81-12.82-3.63-19.14 4.98-36.85 8.77-54.12 11.58-18.22 2.97-35.37 4.76-52.45 5.47-4.86.2-9.2 3.06-11.31 7.44-1.93 4.02-3.79 7.86-5.56 11.53-1.8-3.69-3.68-7.54-5.64-11.58-2.12-4.36-6.44-7.19-11.28-7.39-17.04-.72-34.13-2.51-52.27-5.46-17.34-2.83-35.12-6.64-54.35-11.64-4.55-1.18-9.6.25-12.84 3.65-2.76 2.89-4.03 6.86-3.54 10.75-8.65-8.04-17.86-16.63-27.7-25.85-1.41-1.32-3.13-2.33-4.96-2.92-29.33-9.45-61.84-21.27-99.41-36.13-1.55-.61-3.18-.93-4.84-.93-4.72 0-9.11 2.55-11.44 6.66-3.22 5.66-1.77 12.94 3.39 16.93 84.61 65.4 141.47 108.25 178.93 134.86 2.24 1.59 4.88 2.43 7.62 2.43h29.2c3.52 0 6.84-1.37 9.32-3.87 2.49-2.49 3.85-5.81 3.84-9.33-.02-8.57.25-18.12.85-29.06 12.66 15.89 22.83 28.27 30.42 37.48 2.51 3.04 6.21 4.78 10.15 4.78h29.2c3.94 0 7.64-1.74 10.15-4.78 8.08-9.79 17.93-21.8 30.42-37.48.59 10.94.87 20.49.85 29.06 0 3.47 1.39 6.87 3.84 9.33 2.49 2.5 5.8 3.87 9.32 3.87h29.2c2.75 0 5.38-.84 7.63-2.43 12.94-9.19 28.19-20.32 46.08-33.63.35 1.65.86 3.25 1.54 4.8-.25.31-.49.65-.7 1-.31-.03-.61-.04-.9-.04-4.3 0-8.14 2.14-10.46 5.77-1.11 1.54-1.88 3.16-2.28 4.81-.33 1.33-.48 2.81-.48 4.65 0 3.72.99 6.95 2.91 9.56 2.53 3.64 6.19 5.64 10.32 5.64 1.34 0 3.27-.23 5.29-1.24 1.09.47 2.27.72 3.46.72h2.5c.85 0 1.68-.12 2.48-.36 1.78.54 3.54.81 5.26.81 3.28 0 7.81-.95 11.83-5.16 4.63 4.24 9.75 5.19 13.41 5.19 5.24 0 12.65-1.81 18.24-10.46 3.61-5.67 5.43-12.85 5.43-21.34s-1.77-15.31-5.26-20.84l-.02-.03c-5.39-8.29-12.59-10.03-17.67-10.03-3.22 0-7.71.72-12.03 3.85-.31-.44-.67-.83-1.04-1.2 28.22-21.32 61.61-46.89 101.02-77.35 5.16-3.99 6.61-11.26 3.39-16.92zm-356.4 76.91c-2.24 26.58-3.27 45.84-3.32 61.96h-26.31c-35.48-25.23-88.36-65.02-165.72-124.71 31.73 12.32 59.85 22.41 85.59 30.71 24.97 23.4 45.9 42.78 64 59.26l6.07 6.17-2.52-8.5c-4.21-12.37-8.6-25.88-13.39-41.18 18.24 4.65 35.27 8.24 51.93 10.96 1.35.22 2.71.43 4.05.64l-.4 4.69zm132.22-1.17c-21.97 28.21-37.9 47.74-50.58 63.12h-27.13c-12.67-15.36-28.58-34.87-50.58-63.12l-2.64-3.39c16.48 2.52 32.19 4.1 47.85 4.81 6.17 12.67 11.5 23.54 16.15 33.04l2.79 5.7 2.54-5.23c4.67-9.61 10.02-20.63 16.23-33.5 15.72-.7 31.49-2.29 48.01-4.82zm91.95 65.8c-.23.73-.54 1.41-.94 2.03-.86 1.34-1.9 2.01-3.13 2.01s-2.28-.65-3.16-1.94c-.86-1.14-1.29-2.63-1.29-4.48 0-1.09.07-1.94.23-2.55.15-.61.48-1.26.99-1.93.79-1.32 1.86-1.98 3.23-1.98 1.23 0 2.27.66 3.13 1.98.86 1.18 1.28 2.67 1.28 4.48 0 .86-.12 1.65-.35 2.38zm21.56.19c-1.76 2.52-3.97 3.79-6.63 3.79-1.37 0-2.84-.36-4.41-1.08-.86-.28-1.45-.49-1.77-.62-.37-.12-.65-.17-.83-.17l-.38.17c-.09.14-.16.32-.21.55s-.09.46-.14.69h-2.5l-.35-16.56h2.78c.67 4.26 1.64 7.45 2.92 9.58 1.13 1.8 2.56 2.78 4.27 2.92 1.13 0 2.08-.52 2.85-1.56.74-.9 1.11-2.21 1.11-3.92 0-1.27-.27-2.36-.8-3.27-.23-.42-.58-.94-1.04-1.56-.53-.55-1.12-1.12-1.77-1.7l-5.07-4.41c-.93-.81-1.7-1.64-2.33-2.5-.67-.79-1.24-1.68-1.7-2.67-.9-2.04-1.35-4.27-1.35-6.7 0-.24.04-.46.04-.69.11-3.11.91-5.85 2.46-8.19.95-1.13 1.94-1.99 2.99-2.57.99-.56 2.13-.83 3.4-.83s2.56.28 3.85.83l1.08.43.76.3c.09-.09.19-.27.28-.52.04-.15.09-.39.16-.68.02-.08.03-.14.05-.22h2.43l.49 14.65h-2.78c-.46-3.7-1.24-6.32-2.33-7.85-.9-1.5-2.07-2.26-3.51-2.26-.04 0-.08.01-.13.01-.98.03-1.76.43-2.34 1.2-.24.29-.42.62-.57.98-.28.65-.43 1.4-.43 2.28 0 .67.05 1.27.14 1.79s.31 1.04.66 1.55c.28.53.62 1.03 1.04 1.49.44.49.98.99 1.63 1.49l5 4.06c.95.81 1.76 1.65 2.45 2.5.68.86 1.27 1.81 1.75 2.85.88 1.83 1.32 4.14 1.32 6.94 0 3.8-.85 6.96-2.53 9.48zm8.61-34.93c2.73-4.26 6.31-6.39 10.73-6.39s7.7 2.01 10.31 6.04c2.57 4.08 3.85 9.43 3.85 16.08s-1.35 12.37-4.06 16.63c-2.76 4.26-6.37 6.39-10.83 6.39s-7.69-2.11-10.28-6.32c-2.64-4.17-3.96-9.5-3.96-16.01s1.41-12.12 4.24-16.43zm-88.58 32.06h-26.31c-.04-16.13-1.08-35.38-3.32-61.96l-.4-4.69c1.35-.21 2.7-.42 4.06-.64 16.6-2.71 33.55-6.28 51.72-10.9-4.72 15.33-9.05 28.82-13.19 41.13l-2.71 8.04 6.27-5.72c18.01-16.45 38.86-35.81 63.74-59.17 25.81-8.32 54.02-18.44 85.85-30.8-77.35 59.68-130.23 99.48-165.72 124.71z" fill="#fff"/></svg>